<svg version="1.1" id="Layer_1" xmlns="http://www.w3.org/2000/svg" x="0" y="0" viewBox="0 0 121.7 112" xml:space="preserve"><style type="text/css">.st0{fill:#f4ac4d;stroke:#2a314d;stroke-width:2;stroke-linecap:round;stroke-miterlimit:10}.st1{fill:#f6f7f8}.st2,.st3{fill:none;stroke:#8395a5;stroke-miterlimit:10}.st3{stroke:#cfd1d3}.st4{fill:#f39200}.st5{stroke:#000}.st5,.st6,.st7,.st8,.st9{fill:none;stroke-miterlimit:10}.st6{stroke:#2a314d}.st7{stroke:#d7d9db}.st8,.st9{stroke:#2a314d;stroke-width:2}.st9{stroke-linecap:round}.st10{fill:#e3051c}.st11{fill:#2a314d}.st12{stroke:#f39200;stroke-miterlimit:10}.st12,.st13{fill:none}.st13,.st14,.st15,.st16,.st17{stroke-miterlimit:10}.st13{stroke:#000}.st13,.st14,.st15,.st16,.st17{stroke-width:2}.st14{fill:#fff}.st14,.st15,.st16,.st17{stroke:#2a314d}.st15,.st16{fill:#f39200}.st16,.st17{stroke-linecap:round}.st17{fill:#fff}.st18{fill:#555a71}.st18,.st19,.st20{stroke:#2a314d;stroke-width:2;stroke-miterlimit:10}.st19{stroke-linecap:round;stroke-linejoin:round;fill:none}.st20{fill:#f6f7f8}.st21{fill:#f4ac4d}.st22,.st23{stroke:#2a314d;stroke-width:2;stroke-linecap:round;stroke-miterlimit:10}.st22{stroke-linejoin:round;fill:#fff}.st23{fill:none;stroke-dasharray:.9316,3.7264}.st24{fill:#aaadb8}.st25,.st26,.st27,.st28,.st29{stroke-width:2;stroke-miterlimit:10}.st25{stroke-linecap:round;stroke-linejoin:round;fill:#555a71;stroke:#2a314d}.st26{fill:none}.st26,.st27,.st28,.st29{stroke:#f39200}.st27{fill:#fff}.st28,.st29{fill:none;stroke-dasharray:2.7235,3.6314}.st29{stroke-dasharray:2.6691,3.5588}.st30{fill:#ff72b1}.st31,.st32{stroke-width:2;stroke-miterlimit:10}.st31{stroke-dasharray:3.1333,4.1777;fill:none;stroke:#f39200}.st32{fill:#f4ac4d;stroke:#2a314d}</style><circle class="st20" cx="65.7" cy="56" r="55"/><path class="st14" d="M67.7 89h-44c-1.1 0-2-.9-2-2V18c0-1.1.9-2 2-2h44c1.1 0 2 .9 2 2v69c0 1.1-.9 2-2 2z"/><path class="st21" d="M60.7 76h-30c-1.1 0-2-.9-2-2V50c0-1.1.9-2 2-2h30c1.1 0 2 .9 2 2v24c0 1.1-.9 2-2 2z"/><path class="st14" d="M51.7 89h56.6c1.1 0 2-.9 2-2V46c0-1.1-.9-2-2-2H51.7c-1.1 0-2 .9-2 2v41c0 1.1.9 2 2 2z"/><path class="st4" d="M93.6 55.8c0-3.8 3.1-6.9 6.9-6.9v6.9h6.9c0 3.8-3.1 6.9-6.9 6.9s-6.9-3.1-6.9-6.9z"/><circle class="st4" cx="56.2" cy="62.7" r="2"/><circle class="st4" cx="56.2" cy="72.6" r="2"/><path class="st8" d="M15.3 77.5c-.6-.5-1.2-.9-1.7-1.4l-12.4 16c-.4.5.1 1.5 1.1 2.3 1 .8 2.1 1 2.5.5l12.4-16c-.7-.5-1.3-.9-1.9-1.4z"/><circle class="st4" cx="56.2" cy="81.8" r="2"/><path class="st19" d="M16.6 62.7c2.8-3.6 8-4.3 11.6-1.5"/><path class="st11" d="M67.5 84.8c-1.2 0-2.1-.9-2.1-2V53.2c0-1.1.9-2 2-2h.1c1.1 0 2 .9 2 2v29.6c0 1.1-.9 2-2 2zm7.1 0c-1.2 0-2.1-.9-2.1-2V66.5c0-1.1.9-2 2-2h.1c1.1 0 2 .9 2 2v16.4c0 1-.9 1.9-2 1.9zm7.1 0c-1.2 0-2.1-.9-2.1-2V62.4c0-1.1.9-2 2-2h.1c1.1 0 2 .9 2 2v20.5c0 1-.9 1.9-2 1.9zm7.2 0c-1.2 0-2.1-.9-2.1-2v-7.2c0-1.1.9-2 2-2h.1c1.1 0 2 .9 2 2v7.2c0 1.1-.9 2-2 2z"/><path class="st20" d="M31.8 54.5c-6.2-4.8-15.1-3.7-19.9 2.6-4.8 6.1-3.6 15.1 2.6 19.9 6.2 4.8 15.1 3.7 19.9-2.6 4.8-6.2 3.7-15.1-2.6-19.9zM31.3 72c-3.5 4.5-9.9 5.3-14.4 1.8s-5.3-9.9-1.8-14.4 9.9-5.3 14.4-1.8c4.4 3.5 5.3 9.9 1.8 14.4z"/><path class="st24" d="M65.7 101.7c11.1 0 21.1-4.7 28.2-12.1-.2.4-56.2-.4-56.5 0 7 7.6 17.1 12.1 28.3 12.1z"/><path class="st19" d="M114.7 89h-98m13-61h33m-33 4h33m-33 4h33m-33 4h33"/></svg>